<mxfile host="app.diagrams.net" modified="2023-02-22T04:28:04.627Z" agent="5.0 (Windows)" etag="c3ATEfUFBHjBIyAvvPPN" version="20.8.20" type="github">
  <diagram name="Page-1" id="h0iSFPq3OK_YzwrbNroi">
    <mxGraphModel dx="2690" dy="799" grid="1" gridSize="10" guides="1" tooltips="1" connect="1" arrows="1" fold="1" page="1" pageScale="1" pageWidth="1100" pageHeight="850" math="0" shadow="0">
      <root>
        <mxCell id="0" />
        <mxCell id="1" parent="0" />
        <mxCell id="XAKjau4it5VpvDygJ0Ls-10" value="&lt;div&gt;Orbital Evolution&lt;/div&gt;" style="swimlane;whiteSpace=wrap;html=1;fontSize=9;startSize=20;opacity=40;" vertex="1" parent="1">
          <mxGeometry x="-260" y="180" width="130" height="270" as="geometry" />
        </mxCell>
        <mxCell id="XAKjau4it5VpvDygJ0Ls-67" style="edgeStyle=orthogonalEdgeStyle;rounded=0;orthogonalLoop=1;jettySize=auto;html=1;exitX=0.5;exitY=1;exitDx=0;exitDy=0;entryX=0.5;entryY=0;entryDx=0;entryDy=0;fontSize=9;fontColor=#FF0000;" edge="1" parent="XAKjau4it5VpvDygJ0Ls-10" source="XAKjau4it5VpvDygJ0Ls-44" target="XAKjau4it5VpvDygJ0Ls-45">
          <mxGeometry relative="1" as="geometry" />
        </mxCell>
        <mxCell id="XAKjau4it5VpvDygJ0Ls-44" value="Calculate Tidal Potential" style="ellipse;whiteSpace=wrap;html=1;fontSize=9;fillColor=#d5e8d4;strokeColor=#82b366;" vertex="1" parent="XAKjau4it5VpvDygJ0Ls-10">
          <mxGeometry x="5" y="49" width="120" height="40" as="geometry" />
        </mxCell>
        <mxCell id="XAKjau4it5VpvDygJ0Ls-116" style="edgeStyle=orthogonalEdgeStyle;rounded=0;orthogonalLoop=1;jettySize=auto;html=1;fontSize=10;fontColor=#000000;" edge="1" parent="XAKjau4it5VpvDygJ0Ls-10" source="XAKjau4it5VpvDygJ0Ls-45" target="XAKjau4it5VpvDygJ0Ls-115">
          <mxGeometry relative="1" as="geometry" />
        </mxCell>
        <mxCell id="XAKjau4it5VpvDygJ0Ls-45" value="Update Orbit" style="ellipse;whiteSpace=wrap;html=1;fontSize=9;fillColor=#d5e8d4;strokeColor=#82b366;" vertex="1" parent="XAKjau4it5VpvDygJ0Ls-10">
          <mxGeometry x="5" y="113" width="120" height="40" as="geometry" />
        </mxCell>
        <mxCell id="XAKjau4it5VpvDygJ0Ls-115" value="Update Tidal Heating" style="ellipse;whiteSpace=wrap;html=1;fontSize=9;fillColor=#d5e8d4;strokeColor=#82b366;" vertex="1" parent="XAKjau4it5VpvDygJ0Ls-10">
          <mxGeometry x="5" y="184" width="120" height="40" as="geometry" />
        </mxCell>
        <mxCell id="XAKjau4it5VpvDygJ0Ls-33" value="Thermal Evolution" style="swimlane;whiteSpace=wrap;html=1;fontSize=9;startSize=20;opacity=40;glass=0;" vertex="1" parent="1">
          <mxGeometry x="-980" y="180" width="300" height="270" as="geometry" />
        </mxCell>
        <mxCell id="XAKjau4it5VpvDygJ0Ls-58" style="edgeStyle=orthogonalEdgeStyle;rounded=0;orthogonalLoop=1;jettySize=auto;html=1;exitX=0.5;exitY=1;exitDx=0;exitDy=0;entryX=0.5;entryY=0;entryDx=0;entryDy=0;fontSize=9;fontColor=#FF0000;" edge="1" parent="XAKjau4it5VpvDygJ0Ls-33" source="XAKjau4it5VpvDygJ0Ls-36" target="XAKjau4it5VpvDygJ0Ls-46">
          <mxGeometry relative="1" as="geometry" />
        </mxCell>
        <mxCell id="XAKjau4it5VpvDygJ0Ls-64" style="edgeStyle=orthogonalEdgeStyle;rounded=0;orthogonalLoop=1;jettySize=auto;html=1;exitX=0;exitY=0.5;exitDx=0;exitDy=0;entryX=1;entryY=0.5;entryDx=0;entryDy=0;fontSize=9;fontColor=#FF0000;" edge="1" parent="XAKjau4it5VpvDygJ0Ls-33" source="XAKjau4it5VpvDygJ0Ls-36" target="XAKjau4it5VpvDygJ0Ls-63">
          <mxGeometry relative="1" as="geometry" />
        </mxCell>
        <mxCell id="XAKjau4it5VpvDygJ0Ls-36" value="Update Viscoelastic Properties" style="ellipse;whiteSpace=wrap;html=1;fontSize=9;fillColor=#d5e8d4;strokeColor=#82b366;" vertex="1" parent="XAKjau4it5VpvDygJ0Ls-33">
          <mxGeometry x="150" y="97" width="120" height="40" as="geometry" />
        </mxCell>
        <mxCell id="XAKjau4it5VpvDygJ0Ls-42" style="edgeStyle=orthogonalEdgeStyle;rounded=0;orthogonalLoop=1;jettySize=auto;html=1;entryX=0.5;entryY=0;entryDx=0;entryDy=0;fontSize=9;" edge="1" parent="XAKjau4it5VpvDygJ0Ls-33" source="XAKjau4it5VpvDygJ0Ls-37" target="XAKjau4it5VpvDygJ0Ls-36">
          <mxGeometry relative="1" as="geometry" />
        </mxCell>
        <mxCell id="XAKjau4it5VpvDygJ0Ls-37" value="Update Phase Change" style="ellipse;whiteSpace=wrap;html=1;fontSize=9;fillColor=#fff2cc;strokeColor=#d6b656;" vertex="1" parent="XAKjau4it5VpvDygJ0Ls-33">
          <mxGeometry x="150" y="27" width="120" height="40" as="geometry" />
        </mxCell>
        <mxCell id="XAKjau4it5VpvDygJ0Ls-47" value="Update Heating &lt;br&gt;and Cooling" style="ellipse;whiteSpace=wrap;html=1;fontSize=9;fillColor=#d5e8d4;strokeColor=#82b366;" vertex="1" parent="XAKjau4it5VpvDygJ0Ls-33">
          <mxGeometry x="150" y="217" width="120" height="40" as="geometry" />
        </mxCell>
        <mxCell id="XAKjau4it5VpvDygJ0Ls-59" style="edgeStyle=orthogonalEdgeStyle;rounded=0;orthogonalLoop=1;jettySize=auto;html=1;exitX=0.5;exitY=1;exitDx=0;exitDy=0;entryX=0.5;entryY=0;entryDx=0;entryDy=0;fontSize=9;fontColor=#FF0000;" edge="1" parent="XAKjau4it5VpvDygJ0Ls-33" source="XAKjau4it5VpvDygJ0Ls-46" target="XAKjau4it5VpvDygJ0Ls-47">
          <mxGeometry relative="1" as="geometry" />
        </mxCell>
        <mxCell id="XAKjau4it5VpvDygJ0Ls-46" value="&lt;b&gt;&lt;font color=&quot;#FF0000&quot;&gt;Find Love Numbers&lt;/font&gt;&lt;/b&gt;" style="ellipse;whiteSpace=wrap;html=1;fontSize=9;fillColor=#d5e8d4;strokeColor=#82b366;" vertex="1" parent="XAKjau4it5VpvDygJ0Ls-33">
          <mxGeometry x="150" y="157" width="120" height="40" as="geometry" />
        </mxCell>
        <mxCell id="XAKjau4it5VpvDygJ0Ls-63" value="Update Outgassing" style="ellipse;whiteSpace=wrap;html=1;fontSize=9;fillColor=#f8cecc;strokeColor=#b85450;" vertex="1" parent="XAKjau4it5VpvDygJ0Ls-33">
          <mxGeometry x="10" y="97" width="120" height="40" as="geometry" />
        </mxCell>
        <mxCell id="XAKjau4it5VpvDygJ0Ls-121" style="edgeStyle=orthogonalEdgeStyle;rounded=0;orthogonalLoop=1;jettySize=auto;html=1;fontSize=10;fontColor=#000000;" edge="1" parent="XAKjau4it5VpvDygJ0Ls-33" source="XAKjau4it5VpvDygJ0Ls-120" target="XAKjau4it5VpvDygJ0Ls-47">
          <mxGeometry relative="1" as="geometry" />
        </mxCell>
        <mxCell id="XAKjau4it5VpvDygJ0Ls-120" value="Update Radiogenics" style="ellipse;whiteSpace=wrap;html=1;fontSize=9;fillColor=#d5e8d4;strokeColor=#82b366;" vertex="1" parent="XAKjau4it5VpvDygJ0Ls-33">
          <mxGeometry x="10" y="217" width="120" height="40" as="geometry" />
        </mxCell>
        <mxCell id="XAKjau4it5VpvDygJ0Ls-102" value="&lt;font color=&quot;#000000&quot;&gt;Check for Fast Spin-Changes&lt;br&gt;&lt;/font&gt;" style="swimlane;whiteSpace=wrap;html=1;fontSize=10;fontColor=#FF0000;startSize=20;opacity=40;" vertex="1" parent="1">
          <mxGeometry x="-660" y="180" width="375" height="270" as="geometry" />
        </mxCell>
        <mxCell id="XAKjau4it5VpvDygJ0Ls-7" value="&lt;div&gt;&lt;b&gt;&lt;font color=&quot;#FF0000&quot;&gt;Spin Evolution&lt;/font&gt;&lt;/b&gt;&lt;/div&gt;" style="swimlane;whiteSpace=wrap;html=1;fontSize=9;startSize=20;opacity=40;" vertex="1" parent="XAKjau4it5VpvDygJ0Ls-102">
          <mxGeometry x="237" y="90" width="130" height="170" as="geometry" />
        </mxCell>
        <mxCell id="XAKjau4it5VpvDygJ0Ls-78" value="Update Spin" style="ellipse;whiteSpace=wrap;html=1;fontSize=9;fillColor=#d5e8d4;strokeColor=#82b366;" vertex="1" parent="XAKjau4it5VpvDygJ0Ls-7">
          <mxGeometry x="5" y="111" width="120" height="40" as="geometry" />
        </mxCell>
        <mxCell id="XAKjau4it5VpvDygJ0Ls-87" style="edgeStyle=orthogonalEdgeStyle;rounded=0;orthogonalLoop=1;jettySize=auto;html=1;fontSize=10;fontColor=#FF0000;" edge="1" parent="XAKjau4it5VpvDygJ0Ls-7" source="XAKjau4it5VpvDygJ0Ls-79" target="XAKjau4it5VpvDygJ0Ls-78">
          <mxGeometry relative="1" as="geometry" />
        </mxCell>
        <mxCell id="XAKjau4it5VpvDygJ0Ls-79" value="Calculate Tidal Potential" style="ellipse;whiteSpace=wrap;html=1;fontSize=9;fillColor=#d5e8d4;strokeColor=#82b366;" vertex="1" parent="XAKjau4it5VpvDygJ0Ls-7">
          <mxGeometry x="5" y="48" width="120" height="40" as="geometry" />
        </mxCell>
        <mxCell id="XAKjau4it5VpvDygJ0Ls-8" value="Is Planet Tidally Locked?" style="rounded=1;whiteSpace=wrap;html=1;fontSize=9;" vertex="1" parent="XAKjau4it5VpvDygJ0Ls-102">
          <mxGeometry x="102" y="38.5" width="90" height="40" as="geometry" />
        </mxCell>
        <mxCell id="XAKjau4it5VpvDygJ0Ls-109" value="&lt;font color=&quot;#000000&quot;&gt;No&lt;/font&gt;" style="edgeStyle=orthogonalEdgeStyle;rounded=0;orthogonalLoop=1;jettySize=auto;html=1;entryX=0;entryY=0.5;entryDx=0;entryDy=0;fontSize=10;fontColor=#FFFFFF;" edge="1" parent="XAKjau4it5VpvDygJ0Ls-102" source="XAKjau4it5VpvDygJ0Ls-9" target="XAKjau4it5VpvDygJ0Ls-7">
          <mxGeometry relative="1" as="geometry" />
        </mxCell>
        <mxCell id="XAKjau4it5VpvDygJ0Ls-9" value="Is Eccentricity Large?*" style="rounded=1;whiteSpace=wrap;html=1;fontSize=9;" vertex="1" parent="XAKjau4it5VpvDygJ0Ls-102">
          <mxGeometry x="102" y="115.5" width="90" height="40" as="geometry" />
        </mxCell>
        <mxCell id="XAKjau4it5VpvDygJ0Ls-103" value="No" style="edgeStyle=orthogonalEdgeStyle;rounded=0;orthogonalLoop=1;jettySize=auto;html=1;entryX=0.5;entryY=0;entryDx=0;entryDy=0;fontSize=10;fontColor=#000000;" edge="1" parent="XAKjau4it5VpvDygJ0Ls-102" source="XAKjau4it5VpvDygJ0Ls-8" target="XAKjau4it5VpvDygJ0Ls-9">
          <mxGeometry relative="1" as="geometry" />
        </mxCell>
        <mxCell id="XAKjau4it5VpvDygJ0Ls-110" value="&lt;div&gt;No&lt;br&gt;&lt;/div&gt;" style="edgeStyle=orthogonalEdgeStyle;rounded=0;orthogonalLoop=1;jettySize=auto;html=1;entryX=0;entryY=0.5;entryDx=0;entryDy=0;fontSize=10;fontColor=#000000;" edge="1" parent="XAKjau4it5VpvDygJ0Ls-102" source="XAKjau4it5VpvDygJ0Ls-17" target="XAKjau4it5VpvDygJ0Ls-7">
          <mxGeometry relative="1" as="geometry" />
        </mxCell>
        <mxCell id="XAKjau4it5VpvDygJ0Ls-111" value="Yes" style="edgeStyle=orthogonalEdgeStyle;rounded=0;orthogonalLoop=1;jettySize=auto;html=1;entryX=0.5;entryY=1;entryDx=0;entryDy=0;fontSize=10;fontColor=#000000;" edge="1" parent="XAKjau4it5VpvDygJ0Ls-102" source="XAKjau4it5VpvDygJ0Ls-17" target="XAKjau4it5VpvDygJ0Ls-68">
          <mxGeometry relative="1" as="geometry" />
        </mxCell>
        <mxCell id="XAKjau4it5VpvDygJ0Ls-17" value="Is Planet in Higher SOR?" style="rounded=1;whiteSpace=wrap;html=1;fontSize=9;" vertex="1" parent="XAKjau4it5VpvDygJ0Ls-102">
          <mxGeometry x="102" y="191.5" width="90" height="40" as="geometry" />
        </mxCell>
        <mxCell id="XAKjau4it5VpvDygJ0Ls-105" value="&lt;font color=&quot;#000000&quot;&gt;Yes&lt;/font&gt;" style="edgeStyle=orthogonalEdgeStyle;rounded=0;orthogonalLoop=1;jettySize=auto;html=1;entryX=0.5;entryY=0;entryDx=0;entryDy=0;fontSize=10;fontColor=#FF0000;" edge="1" parent="XAKjau4it5VpvDygJ0Ls-102" source="XAKjau4it5VpvDygJ0Ls-9" target="XAKjau4it5VpvDygJ0Ls-17">
          <mxGeometry relative="1" as="geometry" />
        </mxCell>
        <mxCell id="XAKjau4it5VpvDygJ0Ls-68" value="Skip Next Spin Evolution" style="rounded=1;whiteSpace=wrap;html=1;fontSize=9;" vertex="1" parent="XAKjau4it5VpvDygJ0Ls-102">
          <mxGeometry x="7" y="115.5" width="90" height="40" as="geometry" />
        </mxCell>
        <mxCell id="XAKjau4it5VpvDygJ0Ls-106" value="Yes&lt;font color=&quot;#FFFFFF&quot;&gt;.&lt;/font&gt;" style="edgeStyle=orthogonalEdgeStyle;rounded=0;orthogonalLoop=1;jettySize=auto;html=1;entryX=0.5;entryY=0;entryDx=0;entryDy=0;fontSize=10;fontColor=#000000;" edge="1" parent="XAKjau4it5VpvDygJ0Ls-102" source="XAKjau4it5VpvDygJ0Ls-8" target="XAKjau4it5VpvDygJ0Ls-68">
          <mxGeometry x="-0.322" relative="1" as="geometry">
            <mxPoint as="offset" />
          </mxGeometry>
        </mxCell>
        <mxCell id="XAKjau4it5VpvDygJ0Ls-117" style="edgeStyle=orthogonalEdgeStyle;rounded=0;orthogonalLoop=1;jettySize=auto;html=1;fontSize=10;fontColor=#000000;exitX=0.5;exitY=1;exitDx=0;exitDy=0;fillColor=#e1d5e7;strokeColor=#9673a6;strokeWidth=2;entryX=0.5;entryY=1;entryDx=0;entryDy=0;" edge="1" parent="1" source="XAKjau4it5VpvDygJ0Ls-78" target="XAKjau4it5VpvDygJ0Ls-115">
          <mxGeometry relative="1" as="geometry">
            <mxPoint x="-190" y="401" as="targetPoint" />
            <Array as="points">
              <mxPoint x="-358" y="430" />
              <mxPoint x="-195" y="430" />
            </Array>
          </mxGeometry>
        </mxCell>
        <mxCell id="XAKjau4it5VpvDygJ0Ls-118" style="edgeStyle=orthogonalEdgeStyle;rounded=0;orthogonalLoop=1;jettySize=auto;html=1;fontSize=10;fontColor=#000000;entryX=1;entryY=0.5;entryDx=0;entryDy=0;fillColor=#e1d5e7;strokeColor=#9673a6;strokeWidth=2;" edge="1" parent="1" source="XAKjau4it5VpvDygJ0Ls-46" target="XAKjau4it5VpvDygJ0Ls-78">
          <mxGeometry relative="1" as="geometry">
            <mxPoint x="-690" y="520" as="targetPoint" />
            <Array as="points">
              <mxPoint x="-700" y="357" />
              <mxPoint x="-700" y="170" />
              <mxPoint x="-278" y="170" />
              <mxPoint x="-278" y="401" />
            </Array>
          </mxGeometry>
        </mxCell>
        <mxCell id="XAKjau4it5VpvDygJ0Ls-119" style="edgeStyle=orthogonalEdgeStyle;rounded=0;orthogonalLoop=1;jettySize=auto;html=1;entryX=0;entryY=0.5;entryDx=0;entryDy=0;fontSize=10;fontColor=#000000;strokeWidth=2;fillColor=#e1d5e7;strokeColor=#9673a6;" edge="1" parent="1" source="XAKjau4it5VpvDygJ0Ls-46" target="XAKjau4it5VpvDygJ0Ls-45">
          <mxGeometry relative="1" as="geometry">
            <Array as="points">
              <mxPoint x="-700" y="357" />
              <mxPoint x="-700" y="170" />
              <mxPoint x="-278" y="170" />
              <mxPoint x="-278" y="313" />
            </Array>
          </mxGeometry>
        </mxCell>
        <mxCell id="XAKjau4it5VpvDygJ0Ls-122" style="edgeStyle=orthogonalEdgeStyle;rounded=0;orthogonalLoop=1;jettySize=auto;html=1;entryX=0.5;entryY=1;entryDx=0;entryDy=0;fontSize=10;fontColor=#000000;fillColor=#e1d5e7;strokeColor=#9673a6;strokeWidth=2;" edge="1" parent="1" source="XAKjau4it5VpvDygJ0Ls-115" target="XAKjau4it5VpvDygJ0Ls-47">
          <mxGeometry relative="1" as="geometry">
            <Array as="points">
              <mxPoint x="-120" y="384" />
              <mxPoint x="-120" y="470" />
              <mxPoint x="-770" y="470" />
            </Array>
          </mxGeometry>
        </mxCell>
        <mxCell id="XAKjau4it5VpvDygJ0Ls-124" value="" style="shape=flexArrow;endArrow=classic;html=1;rounded=0;fontSize=10;fontColor=#000000;endWidth=57.5;endSize=14.441666666666666;width=27.5;fillColor=#dae8fc;strokeColor=#6c8ebf;" edge="1" parent="1">
          <mxGeometry width="50" height="50" relative="1" as="geometry">
            <mxPoint x="-880" y="120" as="sourcePoint" />
            <mxPoint x="-240" y="120" as="targetPoint" />
          </mxGeometry>
        </mxCell>
        <mxCell id="XAKjau4it5VpvDygJ0Ls-125" value="&lt;b&gt;&lt;font style=&quot;font-size: 11px;&quot;&gt;&lt;font style=&quot;font-size: 12px;&quot;&gt;&lt;font style=&quot;font-size: 13px;&quot;&gt;&lt;font style=&quot;font-size: 14px;&quot;&gt;Integration Process&lt;/font&gt;&lt;/font&gt;&lt;/font&gt;&lt;/font&gt;&lt;/b&gt;" style="edgeLabel;html=1;align=center;verticalAlign=middle;resizable=0;points=[];fontSize=10;fontColor=#000000;" vertex="1" connectable="0" parent="XAKjau4it5VpvDygJ0Ls-124">
          <mxGeometry x="-0.0937" y="-5" relative="1" as="geometry">
            <mxPoint x="32" y="-35" as="offset" />
          </mxGeometry>
        </mxCell>
      </root>
    </mxGraphModel>
  </diagram>
</mxfile>
